<svg xmlns="http://www.w3.org/2000/svg" viewBox="0 0 800 800" width="800" height="800">
  <defs>
  </defs>
  <rect width="100%" height="100%" fill="#143247"/>
  <g>
    <path
      id="main-isle"
      fill="#3a5238"
      stroke="#0d1a14"
      stroke-width="1.2"
      d="M 280 120
         C 220 100 150 150 120 220
         C 90 300 100 400 150 500
         C 200 620 350 700 500 680
         C 650 660 750 550 720 400
         C 700 280 600 200 450 150
         C 380 130 320 120 280 120 Z
         M 620 200
         C 680 180 750 250 720 320
         C 700 360 650 360 600 300
         C 580 250 600 200 620 200 Z
         M 180 320
         C 100 300 50 400 100 500
         C 140 550 200 500 200 400
         C 200 360 200 320 180 320 Z
         M 520 520
         C 480 500 500 600 580 640
         C 640 660 700 600 650 520
         C 600 480 540 500 520 520 Z
    "/>
  </g>
  <rect width="100%" height="100%" fill="none" stroke="rgba(214, 188, 120, 0.15)" stroke-width="2" rx="0"/>
</svg>
