<?xml version="1.0" encoding="UTF-8"?>
<svg xmlns="http://www.w3.org/2000/svg" width="1024" height="682" viewBox="0 0 1024 682" role="img" aria-label="Aeloria CK3-style house province map">
  <defs>
    <style>
      .coast {
        fill: #9a9368;
        stroke: rgba(37, 30, 17, 0.72);
        stroke-width: 3.1;
        vector-effect: non-scaling-stroke;
      }
      .province {
        fill: none;
        stroke: rgba(46, 37, 21, 0.3);
        stroke-width: 0.85;
        vector-effect: non-scaling-stroke;
      }
    </style>
  </defs>
  <rect width="100%" height="100%" fill="#143247"/>
  <path class="coast" d="M 35.14 152.80 L 61.46 107.20 L 70.82 97.00 L 103.73 78.00 L 109.44 73.50 L 112.73 64.00 L 128.84 55.90 L 227.57 14.10 L 248.87 11.40 L 285.07 36.10 L 297.54 36.10 L 340.33 11.40 L 353.84 11.40 L 396.62 36.10 L 410.13 36.10 L 452.91 11.40 L 465.90 10.50 L 505.39 29.50 L 518.90 29.50 L 564.97 10.50 L 579.52 12.30 L 625.59 42.70 L 640.66 49.00 L 690.03 58.50 L 709.25 68.40 L 781.65 121.60 L 800.36 144.40 L 846.43 235.60 L 856.30 262.30 L 872.76 340.20 L 878.47 357.30 L 898.22 387.70 L 900.30 402.10 L 893.72 462.90 L 889.04 480.00 L 866.00 527.50 L 864.96 543.70 L 881.42 598.80 L 880.38 613.20 L 857.34 649.30 L 840.71 655.90 L 758.44 661.60 L 744.41 661.30 L 737.83 653.70 L 724.84 652.80 L 649.15 654.70 L 636.16 653.80 L 629.58 646.20 L 602.56 644.40 L 438.01 640.60 L 410.99 638.80 L 404.41 631.20 L 388.30 628.50 L 292.87 619.00 L 263.25 612.10 L 171.10 577.90 L 147.72 566.80 L 91.78 530.70 L 77.75 514.20 L 44.84 445.80 L 40.16 424.50 L 43.45 358.00 L 42.41 343.00 L 32.54 314.50 L 33.58 304.30 L 50.03 268.20 L 52.63 258.30 L 52.63 231.70 L 50.03 219.40 L 33.58 168.10 Z M 903.93 191.80 L 920.39 155.70 L 930.78 152.10 L 980.14 165.40 L 990.54 175.60 L 1006.99 226.90 L 1007.51 241.00 L 994.35 279.00 L 990.19 286.20 L 977.03 293.80 L 969.75 293.80 L 936.84 286.20 L 929.05 280.50 L 912.59 252.00 L 908.96 241.50 L 902.38 203.50 Z M 908.78 562.00 L 928.53 543.00 L 935.80 540.00 L 962.13 540.00 L 968.89 544.50 L 985.34 573.00 L 985.34 582.00 L 968.89 610.50 L 963.69 615.30 L 947.24 617.20 L 941.52 616.30 L 921.77 608.70 L 917.10 602.40 L 907.23 570.10 Z M 912.08 447.10 L 925.24 412.90 L 931.99 407.20 L 961.61 405.30 L 965.77 403.50 L 962.48 394.00 L 957.80 391.30 L 931.47 383.70 L 926.28 376.50 L 919.70 338.50 L 920.22 329.80 L 930.09 312.70 L 939.96 310.00 L 992.62 310.00 L 1001.97 317.80 L 1008.55 367.20 L 1008.03 375.30 L 998.16 377.20 L 995.56 379.90 L 988.98 395.10 L 990.54 401.40 L 1006.99 426.10 L 1010.11 435.10 L 1013.40 467.40 L 1011.32 478.80 L 994.87 518.70 L 985.51 525.90 L 942.73 531.60 L 933.38 528.00 L 916.92 499.50 L 913.81 489.90 L 910.52 457.60 Z M 946.20 645.40 L 956.07 632.10 L 961.27 630.30 L 984.30 632.20 L 990.02 631.30 L 1003.18 623.70 L 1006.82 627.00 L 1016.69 655.50 L 1015.65 662.10 L 999.20 675.40 L 993.48 677.50 L 973.74 677.50 L 967.50 673.90 L 947.76 651.10 Z"/>
  <g class="provinces">
    <path class="province" d="M 474.56 19.30 L 514.05 30.70 L 518.73 37.60 L 508.85 69.90 L 505.22 75.00 L 492.05 75.00 L 487.38 70.50 L 470.92 42.00 L 468.32 35.10 L 468.32 19.90 Z"><title>Adkison / Frostvale</title></path>
    <path class="province" d="M 509.37 51.40 L 522.54 28.60 L 526.69 25.00 L 539.86 25.00 L 544.53 22.90 L 560.99 9.60 L 571.90 12.30 L 624.55 42.70 L 635.99 47.50 L 655.73 47.50 L 651.05 57.40 L 601.69 120.10 L 584.02 124.30 L 521.50 88.20 L 511.11 79.20 L 507.81 58.30 Z"><title>Mcintosh / Frostvale</title></path>
    <path class="province" d="M 480.62 77.20 L 503.66 75.30 L 517.69 82.20 L 583.50 127.80 L 592.34 137.10 L 582.47 150.40 L 574.15 151.60 L 531.37 145.90 L 523.58 143.80 L 516.99 136.20 L 512.32 135.30 L 489.28 137.20 L 484.60 136.30 L 478.02 128.70 L 476.98 121.50 L 476.98 83.50 Z"><title>Holter / Frostvale</title></path>
    <path class="province" d="M 201.24 22.90 L 237.44 9.60 L 249.91 11.40 L 292.69 36.10 L 306.20 36.10 L 348.99 11.40 L 361.46 11.40 L 397.66 36.10 L 410.13 36.10 L 452.91 11.40 L 463.30 15.60 L 486.34 66.90 L 487.90 76.20 L 474.73 83.80 L 467.46 85.00 L 434.55 85.00 L 428.31 83.80 L 421.73 76.20 L 408.74 75.30 L 333.05 77.20 L 309.67 72.70 L 237.27 42.30 L 223.24 37.80 L 206.78 39.70 L 203.15 38.20 L 196.56 26.80 Z"><title>Duval / Frostvale</title></path>
    <path class="province" d="M 37.22 151.00 L 76.71 94.00 L 95.93 77.50 L 178.21 30.00 L 203.67 43.50 L 282.65 176.50 L 295.64 208.00 L 298.93 274.50 L 285.42 290.70 L 196.56 326.80 L 166.43 323.20 L 64.41 264.30 L 48.82 251.70 L 52.11 230.80 L 50.03 219.40 L 33.58 168.10 Z"><title>Verlorn / Faerwood</title></path>
    <path class="province" d="M 203.15 326.80 L 278.84 290.70 L 291.83 286.20 L 298.41 293.80 L 299.45 299.20 L 299.45 325.80 L 293.21 339.00 L 253.72 396.00 L 245.41 406.20 L 232.25 413.80 L 227.05 415.00 L 207.30 415.00 L 203.15 413.80 L 196.56 406.20 L 195.01 396.30 L 191.72 341.20 Z"><title>Nightborn / Faerwood</title></path>
    <path class="province" d="M 34.10 303.40 L 53.84 261.60 L 73.07 264.30 L 175.09 323.20 L 192.23 342.10 L 198.82 402.90 L 187.90 418.20 L 112.21 454.30 L 94.55 459.70 L 58.35 457.80 L 50.55 452.10 L 37.39 417.90 L 36.35 404.70 L 42.93 355.30 L 42.41 343.00 L 32.54 314.50 Z"><title>Shadowveil / Faerwood</title></path>
    <path class="province" d="M 359.03 211.60 L 434.72 205.90 L 447.71 203.80 L 454.29 196.20 L 460.01 199.50 L 489.63 228.00 L 485.99 237.30 L 433.34 267.70 L 415.67 265.30 L 356.43 219.70 Z"><title>LeFleur / Eldoria</title></path>
    <path class="province" d="M 432.47 276.40 L 452.22 253.60 L 460.53 247.00 L 493.44 228.00 L 501.75 226.20 L 521.50 233.80 L 518.90 246.70 L 482.70 320.80 L 471.79 329.50 L 438.88 310.50 L 433.16 304.20 L 429.87 283.30 Z"><title>Bower / Eldoria</title></path>
    <path class="province" d="M 400.60 343.00 L 410.47 314.50 L 414.11 308.80 L 427.27 301.20 L 434.55 303.00 L 467.46 322.00 L 475.25 333.70 L 491.71 388.80 L 485.47 394.20 L 429.53 373.30 L 418.09 367.30 L 401.64 350.20 Z"><title>Binx / Eldoria</title></path>
    <path class="province" d="M 297.02 205.60 L 336.51 209.40 L 353.66 217.50 L 422.77 265.00 L 432.64 276.70 L 426.06 303.30 L 421.90 308.70 L 402.16 316.30 L 386.57 312.70 L 307.59 282.30 L 294.60 268.80 L 291.31 213.70 Z"><title>Dale / Eldoria</title></path>
    <path class="province" d="M 482.70 320.80 L 518.90 246.70 L 530.33 234.10 L 566.53 228.40 L 572.25 253.30 L 572.25 416.70 L 570.69 442.80 L 560.82 444.70 L 557.70 447.70 L 547.82 464.80 L 544.71 467.20 L 534.83 465.30 L 528.08 456.00 L 495.17 399.00 L 488.42 383.10 L 478.54 339.40 Z"><title>Aurand / Twin Cities</title></path>
    <path class="province" d="M 573.11 220.60 L 606.02 224.40 L 615.37 228.00 L 641.70 247.00 L 655.21 253.60 L 714.45 276.40 L 723.80 282.40 L 723.80 297.60 L 720.68 305.40 L 700.94 339.60 L 696.26 345.30 L 686.39 347.20 L 680.15 354.40 L 650.54 398.10 L 638.06 408.90 L 588.70 433.60 L 579.35 437.20 L 569.48 435.30 L 567.92 409.20 L 567.92 245.80 Z"><title>Braafhart / Eresteron</title></path>
    <path class="province" d="M 580.73 166.00 L 607.06 109.00 L 612.78 99.70 L 622.65 97.80 L 627.85 92.40 L 650.88 60.10 L 657.12 54.70 L 673.57 52.80 L 683.96 56.40 L 733.33 81.10 L 747.36 90.40 L 786.85 124.60 L 797.24 137.80 L 823.57 187.20 L 817.33 204.00 L 751.51 261.00 L 738.00 271.20 L 718.26 278.80 L 699.03 272.50 L 597.01 225.00 L 580.39 212.40 L 577.10 180.10 Z"><title>Van Cleave / Varkuun</title></path>
    <path class="province" d="M 297.20 286.30 L 310.36 278.70 L 315.04 279.60 L 331.49 292.90 L 342.92 297.70 L 398.87 314.80 L 406.14 322.60 L 396.27 354.90 L 391.59 361.20 L 371.85 368.80 L 360.42 365.20 L 307.76 334.80 L 298.93 324.90 L 295.64 292.60 Z"><title>Blackblood / Gilgeth</title></path>
    <path class="province" d="M 372.37 367.90 L 395.40 354.60 L 408.91 358.20 L 471.44 394.30 L 483.39 400.00 L 496.56 400.00 L 503.83 409.00 L 536.74 466.00 L 538.82 482.20 L 519.07 527.80 L 515.44 540.10 L 512.14 572.40 L 508.51 575.70 L 488.76 564.30 L 474.21 549.30 L 401.81 465.70 L 388.82 452.20 L 378.95 450.30 L 376.35 440.40 L 369.77 379.60 Z"><title>Ironhide / Gilgeth</title></path>
    <path class="province" d="M 300.49 338.80 L 307.07 331.20 L 314.86 333.90 L 357.65 358.60 L 366.48 372.10 L 379.64 432.90 L 374.45 440.70 L 328.37 429.30 L 321.62 426.00 L 324.91 416.50 L 322.31 406.00 L 302.57 349.00 Z"><title>Redtusk / Gilgeth</title></path>
    <path class="province" d="M 236.06 407.20 L 245.93 405.30 L 249.57 400.80 L 262.73 374.20 L 266.37 369.70 L 276.24 367.80 L 280.92 363.30 L 300.66 336.70 L 303.78 336.70 L 303.78 363.30 L 305.34 369.60 L 315.21 382.90 L 317.81 391.00 L 324.39 429.00 L 320.23 436.20 L 287.32 443.80 L 276.93 442.00 L 244.02 423.00 L 238.31 418.50 L 235.02 409.00 Z"><title>Mijid / Groth</title></path>
    <path class="province" d="M 291.65 449.50 L 324.56 430.50 L 337.03 430.50 L 383.11 449.50 L 391.42 454.90 L 398.00 470.10 L 400.60 472.80 L 410.47 474.70 L 415.67 480.10 L 438.71 512.40 L 449.10 523.20 L 491.88 559.30 L 499.67 574.60 L 506.26 635.40 L 495.86 644.40 L 423.46 640.60 L 407.36 637.90 L 377.74 624.60 L 363.19 609.00 L 300.66 523.50 L 290.27 503.10 L 286.98 459.40 Z"><title>Ashfang / Groth</title></path>
    <path class="province" d="M 236.06 422.20 L 245.93 420.30 L 252.68 423.00 L 285.59 442.00 L 291.31 453.70 L 294.60 508.80 L 287.84 515.70 L 241.77 504.30 L 234.50 492.90 L 234.50 432.10 Z"><title>Syncar / Groth</title></path>
    <path class="province" d="M 106.67 452.50 L 119.83 452.50 L 130.23 447.70 L 182.88 417.30 L 196.39 412.50 L 229.30 412.50 L 235.02 422.40 L 238.31 485.10 L 236.23 497.10 L 219.77 510.40 L 215.10 512.50 L 201.93 512.50 L 188.42 505.30 L 116.02 459.70 Z"><title>Bloodware / Vilefin</title></path>
    <path class="province" d="M 206.78 517.90 L 223.24 504.60 L 234.67 504.60 L 290.62 517.90 L 309.84 533.20 L 375.66 616.80 L 373.06 628.50 L 290.79 619.00 L 270.52 614.50 L 224.45 595.50 L 215.62 583.80 L 205.74 528.70 Z"><title>Cogtooth / Vilefin</title></path>
    <path class="province" d="M 53.67 466.30 L 60.25 458.70 L 67.53 457.50 L 107.02 457.50 L 124.68 464.10 L 197.08 505.90 L 209.56 522.10 L 216.14 582.90 L 209.90 590.10 L 163.83 574.90 L 147.72 566.80 L 91.78 530.70 L 79.30 518.10 L 56.27 474.40 Z"><title>Rustfang / Vilefin</title></path>
    <path class="province" d="M 355.05 78.10 L 460.36 81.90 L 477.50 88.80 L 480.79 128.70 L 477.16 136.20 L 450.83 143.80 L 433.68 136.90 L 351.41 85.60 Z"><title>Goldfinger Duke / Lostfeld</title></path>
    <path class="province" d="M 452.56 150.40 L 462.43 137.10 L 477.50 136.80 L 563.07 148.20 L 577.62 151.20 L 584.20 158.80 L 584.20 161.80 L 577.62 173.20 L 577.10 180.10 L 580.39 212.40 L 576.23 219.60 L 546.61 232.90 L 537.78 235.00 L 511.45 235.00 L 502.10 232.00 L 469.19 213.00 L 462.43 203.10 L 452.56 159.40 Z"><title>Runewarden / Lostfeld</title></path>
    <path class="province" d="M 206.78 39.70 L 223.24 37.80 L 238.83 42.00 L 321.10 70.50 L 348.64 83.40 L 440.78 136.60 L 454.81 148.30 L 451.52 169.20 L 452.04 174.30 L 458.62 185.70 L 458.62 189.30 L 452.04 200.70 L 444.77 202.50 L 405.28 202.50 L 398.00 203.70 L 391.42 211.30 L 382.07 212.50 L 329.41 212.50 L 317.98 211.30 L 298.24 203.70 L 284.21 183.00 L 215.10 59.50 Z"><title>Ironmaul / Lostfeld</title></path>
    <path class="province" d="M 772.99 476.80 L 782.86 440.70 L 788.58 435.00 L 814.91 435.00 L 823.74 438.90 L 853.36 463.60 L 849.20 473.80 L 793.26 513.70 L 782.86 515.50 L 772.99 487.00 Z"><title>Gross / Dur Khadur</title></path>
    <path class="province" d="M 793.78 513.40 L 853.01 471.60 L 865.48 466.20 L 885.23 473.80 L 885.23 482.20 L 865.48 527.80 L 864.96 543.70 L 881.42 598.80 L 872.58 600.30 L 800.18 554.70 L 788.23 544.20 L 784.94 523.30 Z"><title>Delonious / Dur Khadur</title></path>
    <path class="province" d="M 649.50 637.30 L 754.80 572.70 L 772.47 560.70 L 779.05 549.30 L 782.69 547.80 L 799.15 549.70 L 802.26 551.50 L 805.55 561.00 L 814.91 568.20 L 870.85 604.30 L 877.09 615.10 L 860.63 647.40 L 854.92 653.70 L 835.17 661.30 L 808.67 661.60 L 660.58 655.90 L 636.68 654.10 L 633.39 648.40 Z"><title>Galfazzar / Dur Khadur</title></path>
    <path class="province" d="M 617.11 623.80 L 709.25 521.20 L 730.04 505.00 L 769.53 505.00 L 777.32 510.10 L 787.19 542.40 L 786.67 549.30 L 773.51 560.70 L 765.20 565.50 L 725.71 584.50 L 718.95 589.00 L 715.66 598.50 L 706.31 605.70 L 650.36 641.80 L 636.85 646.60 L 607.23 640.90 Z"><title>Vercenti / Dur Khadur</title></path>
    <path class="province" d="M 654.17 389.80 L 706.83 325.20 L 722.42 329.40 L 768.49 420.60 L 772.13 437.10 L 749.09 450.40 L 742.33 452.50 L 722.59 452.50 L 711.16 447.70 L 658.50 417.30 L 649.67 411.00 L 646.38 401.50 Z"><title>Wood / Glenhaven</title></path>
    <path class="province" d="M 734.37 450.70 L 773.86 439.30 L 779.05 445.30 L 772.47 494.70 L 767.28 502.50 L 740.95 502.50 L 735.75 496.50 L 729.17 458.50 Z"><title>Darkleaf / Glenhaven</title></path>
    <path class="province" d="M 505.04 582.70 L 518.21 552.30 L 519.77 546.00 L 516.47 536.50 L 518.03 532.00 L 531.20 513.00 L 533.80 504.90 L 537.09 472.60 L 545.40 461.80 L 594.76 425.70 L 607.75 418.20 L 640.66 406.80 L 656.25 411.60 L 722.07 453.40 L 731.94 463.30 L 728.65 484.20 L 729.17 489.30 L 735.75 500.70 L 730.04 508.20 L 687.25 544.30 L 678.94 553.30 L 669.07 574.20 L 665.95 577.80 L 656.08 579.70 L 647.76 588.10 L 604.98 639.40 L 587.32 647.20 L 518.21 645.30 L 506.78 638.10 L 503.48 594.40 Z"><title>Mistafae / Glenhaven</title></path>
    <path class="province" d="M 716.70 305.50 L 726.57 277.00 L 740.08 263.20 L 815.77 204.30 L 833.96 213.00 L 873.45 327.00 L 872.41 349.80 L 826.34 380.20 L 806.59 376.00 L 727.61 319.00 Z"><title>Ver Meer / Tidefall</title></path>
    <path class="province" d="M 825.82 380.50 L 868.60 352.00 L 878.47 352.90 L 898.22 387.10 L 900.30 402.10 L 893.72 462.90 L 890.08 472.80 L 873.62 474.70 L 865.31 471.10 L 829.11 446.40 L 822.87 435.60 L 819.58 391.90 Z"><title>Highland Dusken / Tidefall</title></path>
    <path class="province" d="M 946.20 645.40 L 956.07 632.10 L 961.27 630.30 L 984.30 632.20 L 990.02 631.30 L 1003.18 623.70 L 1006.82 627.00 L 1016.69 655.50 L 1015.65 662.10 L 999.20 675.40 L 993.48 677.50 L 973.74 677.50 L 967.50 673.90 L 947.76 651.10 Z"><title>Fish / Tidefall</title></path>
    <path class="province" d="M 730.90 324.70 L 803.30 370.30 L 815.77 379.30 L 822.35 390.70 L 822.87 397.60 L 819.58 429.90 L 813.87 435.00 L 780.96 435.00 L 769.01 420.90 L 726.23 331.60 Z"><title>Mcgowan / Tidefall</title></path>
    <path class="province" d="M 903.93 191.80 L 920.39 155.70 L 930.78 152.10 L 980.14 165.40 L 990.54 175.60 L 1006.99 226.90 L 1007.51 241.00 L 994.35 279.00 L 990.19 286.20 L 977.03 293.80 L 969.75 293.80 L 936.84 286.20 L 929.05 280.50 L 912.59 252.00 L 908.96 241.50 L 902.38 203.50 Z M 908.78 562.00 L 928.53 543.00 L 935.80 540.00 L 962.13 540.00 L 968.89 544.50 L 985.34 573.00 L 985.34 582.00 L 968.89 610.50 L 963.69 615.30 L 947.24 617.20 L 941.52 616.30 L 921.77 608.70 L 917.10 602.40 L 907.23 570.10 Z M 912.08 447.10 L 925.24 412.90 L 931.99 407.20 L 961.61 405.30 L 965.77 403.50 L 962.48 394.00 L 957.80 391.30 L 931.47 383.70 L 926.28 376.50 L 919.70 338.50 L 920.22 329.80 L 930.09 312.70 L 939.96 310.00 L 992.62 310.00 L 1001.97 317.80 L 1008.55 367.20 L 1008.03 375.30 L 998.16 377.20 L 995.56 379.90 L 988.98 395.10 L 990.54 401.40 L 1006.99 426.10 L 1010.11 435.10 L 1013.40 467.40 L 1011.32 478.80 L 994.87 518.70 L 985.51 525.90 L 942.73 531.60 L 933.38 528.00 L 916.92 499.50 L 913.81 489.90 L 910.52 457.60 Z"><title>Blacktide / Dreadwind Isles</title></path>
  </g>
</svg>
